<svg width="20" height="26" viewBox="0 0 20 26" fill="none" xmlns="http://www.w3.org/2000/svg">
<path d="M17.5 5.76847H15C15 3.00251 12.7625 0.762207 10 0.762207C7.2375 0.762207 5 3.00251 5 5.76847H2.5C1.125 5.76847 0 6.89487 0 8.27159V23.2904C0 24.6671 1.125 25.7935 2.5 25.7935H17.5C18.875 25.7935 20 24.6671 20 23.2904V8.27159C20 6.89487 18.875 5.76847 17.5 5.76847ZM10 3.26534C11.375 3.26534 12.5 4.39174 12.5 5.76847H7.5C7.5 4.39174 8.625 3.26534 10 3.26534ZM17.5 23.2904H2.5V8.27159H5V10.7747C5 11.4631 5.5625 12.0263 6.25 12.0263C6.9375 12.0263 7.5 11.4631 7.5 10.7747V8.27159H12.5V10.7747C12.5 11.4631 13.0625 12.0263 13.75 12.0263C14.4375 12.0263 15 11.4631 15 10.7747V8.27159H17.5V23.2904Z" fill="black"/>
</svg>
