<svg xmlns="http://www.w3.org/2000/svg">
<path d="M26.1984 20.5834C27.3859 20.5834 28.4309 19.9342 28.9692 18.9525L34.6376 8.67669C35.2234 7.63169 34.4634 6.33335 33.2601 6.33335H9.82672L8.33839 3.16669H3.16089V6.33335H6.32756L12.0276 18.3509L9.89006 22.2142C8.73422 24.3359 10.2542 26.9167 12.6609 26.9167H31.6609V23.75H12.6609L14.4026 20.5834H26.1984ZM11.3309 9.50002H30.5684L26.1984 17.4167H15.0834L11.3309 9.50002ZM12.6609 28.5C10.9192 28.5 9.51006 29.925 9.51006 31.6667C9.51006 33.4084 10.9192 34.8334 12.6609 34.8334C14.4026 34.8334 15.8276 33.4084 15.8276 31.6667C15.8276 29.925 14.4026 28.5 12.6609 28.5ZM28.4942 28.5C26.7526 28.5 25.3434 29.925 25.3434 31.6667C25.3434 33.4084 26.7526 34.8334 28.4942 34.8334C30.2359 34.8334 31.6609 33.4084 31.6609 31.6667C31.6609 29.925 30.2359 28.5 28.4942 28.5Z" fill="#D9D9D9"/>
</svg>