<svg width="30" height="30" viewBox="0 0 30 30" fill="none" xmlns="http://www.w3.org/2000/svg">
<path d="M19.6938 17.8187H18.7063L18.3563 17.4812C19.5813 16.0562 20.3188 14.2062 20.3188 12.1937C20.3188 7.70623 16.6813 4.06873 12.1938 4.06873C7.70635 4.06873 4.06885 7.70623 4.06885 12.1937C4.06885 16.6812 7.70635 20.3187 12.1938 20.3187C14.2063 20.3187 16.0563 19.5812 17.4813 18.3562L17.8188 18.7062V19.6937L24.0688 25.9312L25.9313 24.0687L19.6938 17.8187ZM12.1938 17.8187C9.08135 17.8187 6.56885 15.3062 6.56885 12.1937C6.56885 9.08123 9.08135 6.56873 12.1938 6.56873C15.3063 6.56873 17.8188 9.08123 17.8188 12.1937C17.8188 15.3062 15.3063 17.8187 12.1938 17.8187Z" fill="#72757A"/>
</svg>
