<svg width="90" height="90" viewBox="0 0 90 90" fill="none" xmlns="http://www.w3.org/2000/svg">
<path d="M26.25 31.875H7.5V24.375H26.25V31.875ZM26.25 43.125H7.5V50.625H26.25V43.125ZM77.2125 69.375L62.85 55.0125C59.85 56.9625 56.325 58.125 52.5 58.125C42.15 58.125 33.75 49.725 33.75 39.375C33.75 29.025 42.15 20.625 52.5 20.625C62.85 20.625 71.25 29.025 71.25 39.375C71.25 43.2 70.0875 46.725 68.1375 49.6875L82.5 64.0875L77.2125 69.375ZM63.75 39.375C63.75 33.1875 58.6875 28.125 52.5 28.125C46.3125 28.125 41.25 33.1875 41.25 39.375C41.25 45.5625 46.3125 50.625 52.5 50.625C58.6875 50.625 63.75 45.5625 63.75 39.375ZM7.5 69.375H45V61.875H7.5V69.375Z" fill="white"/>
</svg>
