<svg width="90" height="90" viewBox="0 0 90 90" fill="none" xmlns="http://www.w3.org/2000/svg">
<path d="M62.0486 48.75C64.8611 48.75 67.3361 47.2125 68.6111 44.8875L82.0361 20.55C83.4236 18.075 81.6236 15 78.7736 15H23.2736L19.7486 7.5H7.48608V15H14.9861L28.4861 43.4625L23.4236 52.6125C20.6861 57.6375 24.2861 63.75 29.9861 63.75H74.9861V56.25H29.9861L34.1111 48.75H62.0486ZM26.8361 22.5H72.3986L62.0486 41.25H35.7236L26.8361 22.5ZM29.9861 67.5C25.8611 67.5 22.5236 70.875 22.5236 75C22.5236 79.125 25.8611 82.5 29.9861 82.5C34.1111 82.5 37.4861 79.125 37.4861 75C37.4861 70.875 34.1111 67.5 29.9861 67.5ZM67.4861 67.5C63.3611 67.5 60.0236 70.875 60.0236 75C60.0236 79.125 63.3611 82.5 67.4861 82.5C71.6111 82.5 74.9861 79.125 74.9861 75C74.9861 70.875 71.6111 67.5 67.4861 67.5Z" fill="white"/>
</svg>
