<svg width="24" height="30" viewBox="0 0 24 30" fill="none" xmlns="http://www.w3.org/2000/svg">
<path d="M22.5333 7.6687L20.7111 28.95C20.7111 29.6531 20.1778 30.2625 19.4667 30.2625H6.04445C5.37778 30.2625 4.80001 29.7 4.80001 28.95L2.97778 7.6687" stroke="#FF0909" stroke-width="2"/>
<path d="M5.11106 7.71558H2.35551C1.73328 7.71558 1.19995 7.15308 1.19995 6.49683V5.27808C1.19995 4.57495 1.73328 4.05933 2.35551 4.05933H23.1111C23.7333 4.05933 24.2666 4.62183 24.2666 5.27808V6.49683C24.2666 7.19995 23.7333 7.71558 23.1111 7.71558H20.3555" stroke="#FF0909" stroke-width="2"/>
<path d="M12.7112 10.1062V26.5125" stroke="#FF0909" stroke-width="2"/>
<path d="M7.82227 10.1062L8.44449 26.4656" stroke="#FF0909" stroke-width="2"/>
<path d="M17.6 10.1531L17.0222 26.4656" stroke="#FF0909" stroke-width="2"/>
<path d="M15.8665 1.19995H9.64429V4.01245H15.8665V1.19995Z" stroke="#FF0909" stroke-width="2"/>
</svg>
