<svg width="40" height="50" viewBox="0 0 40 50" fill="none" xmlns="http://www.w3.org/2000/svg">
<path d="M36.2962 11.5625L33.2592 47.0313C33.2592 48.2031 32.3703 49.2188 31.1851 49.2188H8.81472C7.70361 49.2188 6.74065 48.2813 6.74065 47.0313L3.70361 11.5625" stroke="#D9D9D9" stroke-width="2"/>
<path d="M7.25924 11.6406H2.66665C1.62961 11.6406 0.740723 10.7031 0.740723 9.60938V7.57812C0.740723 6.40625 1.62961 5.54688 2.66665 5.54688H37.2592C38.2963 5.54688 39.1852 6.48437 39.1852 7.57812V9.60938C39.1852 10.7813 38.2963 11.6406 37.2592 11.6406H32.6666" stroke="#D9D9D9" stroke-width="2"/>
<path d="M19.926 15.625V42.9688" stroke="#D9D9D9" stroke-width="2"/>
<path d="M11.7778 15.625L12.8149 42.8906" stroke="#D9D9D9" stroke-width="2"/>
<path d="M28.074 15.7031L27.1111 42.8906" stroke="#D9D9D9" stroke-width="2"/>
<path d="M25.1851 0.78125H14.8147V5.46875H25.1851V0.78125Z" stroke="#D9D9D9" stroke-width="2"/>
</svg>
