<svg width="90" height="90" viewBox="0 0 90 90" fill="none" xmlns="http://www.w3.org/2000/svg">
<path d="M67.5 22.5H60C60 14.2125 53.2875 7.5 45 7.5C36.7125 7.5 30 14.2125 30 22.5H22.5C18.375 22.5 15 25.875 15 30V75C15 79.125 18.375 82.5 22.5 82.5H67.5C71.625 82.5 75 79.125 75 75V30C75 25.875 71.625 22.5 67.5 22.5ZM45 15C49.125 15 52.5 18.375 52.5 22.5H37.5C37.5 18.375 40.875 15 45 15ZM67.5 75H22.5V30H30V37.5C30 39.5625 31.6875 41.25 33.75 41.25C35.8125 41.25 37.5 39.5625 37.5 37.5V30H52.5V37.5C52.5 39.5625 54.1875 41.25 56.25 41.25C58.3125 41.25 60 39.5625 60 37.5V30H67.5V75Z" fill="white"/>
</svg>
